{
  "accessors": [
    {
      "bufferView": 2,
      "componentType": 5126,
      "count": 65532,
      "max": [
        22.781539916992188,
        29.535709381103516,
        3.105380058288574
      ],
      "min": [
        -21.829439163208008,
        -28.516830444335938,
        -0.734969973564148
      ],
      "type": "VEC3"
    },
    {
      "bufferView": 2,
      "byteOffset": 786384,
      "componentType": 5126,
      "count": 65532,
      "max": [
        0.9999998807907104,
        0.9999852776527405,
        1.0
      ],
      "min": [
        -1.0,
        -0.9999611973762512,
        -1.0
      ],
      "type": "VEC3"
    },
    {
      "bufferView": 1,
      "componentType": 5126,
      "count": 65532,
      "max": [
        0.9979550242424011,
        0.9684450030326843
      ],
      "min": [
        0.002050000010058284,
        0.05683999881148338
      ],
      "type": "VEC2"
    },
    {
      "bufferView": 0,
      "componentType": 5125,
      "count": 229038,
      "type": "SCALAR"
    },
    {
      "bufferView": 2,
      "byteOffset": 1572768,
      "componentType": 5126,
      "count": 65532,
      "max": [
        22.7873592376709,
        28.623979568481445,
        3.105380058288574
      ],
      "min": [
        -21.867610931396484,
        -29.891389846801758,
        -0.8075100183486938
      ],
      "type": "VEC3"
    },
    {
      "bufferView": 2,
      "byteOffset": 2359152,
      "componentType": 5126,
      "count": 65532,
      "max": [
        0.9999758005142212,
        0.9999939203262329,
        0.9999997019767761
      ],
      "min": [
        -0.9999830722808838,
        -0.999980092048645,
        -0.9924476146697998
      ],
      "type": "VEC3"
    },
    {
      "bufferView": 1,
      "byteOffset": 524256,
      "componentType": 5126,
      "count": 65532,
      "max": [
        0.9978209733963013,
        0.9979509711265564
      ],
      "min": [
        0.002061000093817711,
        0.5642250180244446
      ],
      "type": "VEC2"
    },
    {
      "bufferView": 0,
      "byteOffset": 916152,
      "componentType": 5125,
      "count": 313491,
      "type": "SCALAR"
    },
    {
      "bufferView": 2,
      "byteOffset": 3145536,
      "componentType": 5126,
      "count": 65532,
      "max": [
        22.39851951599121,
        29.50897979736328,
        3.0092499256134033
      ],
      "min": [
        -22.264970779418945,
        -27.803409576416016,
        -0.7060199975967407
      ],
      "type": "VEC3"
    },
    {
      "bufferView": 2,
      "byteOffset": 3931920,
      "componentType": 5126,
      "count": 65532,
      "max": [
        0.9999962449073792,
        0.9999766945838928,
        0.9999986290931702
      ],
      "min": [
        -0.9999948740005493,
        -1.0,
        -0.9969857335090637
      ],
      "type": "VEC3"
    },
    {
      "bufferView": 1,
      "byteOffset": 1048512,
      "componentType": 5126,
      "count": 65532,
      "max": [
        0.9978340268135071,
        0.8808760046958923
      ],
      "min": [
        0.0020620001014322042,
        0.20985500514507294
      ],
      "type": "VEC2"
    },
    {
      "bufferView": 0,
      "byteOffset": 2170116,
      "componentType": 5125,
      "count": 301341,
      "type": "SCALAR"
    },
    {
      "bufferView": 2,
      "byteOffset": 4718304,
      "componentType": 5126,
      "count": 24599,
      "max": [
        20.51506996154785,
        28.274890899658203,
        3.003880023956299
      ],
      "min": [
        -21.829439163208008,
        -29.89389991760254,
        -0.46226000785827637
      ],
      "type": "VEC3"
    },
    {
      "bufferView": 2,
      "byteOffset": 5013492,
      "componentType": 5126,
      "count": 24599,
      "max": [
        0.9999540448188782,
        0.9993028044700623,
        0.9999999403953552
      ],
      "min": [
        -0.9999672174453735,
        -0.9997026920318604,
        -0.9996991753578186
      ],
      "type": "VEC3"
    },
    {
      "bufferView": 1,
      "byteOffset": 1572768,
      "componentType": 5126,
      "count": 24599,
      "max": [
        0.9978070259094238,
        0.6463670134544373
      ],
      "min": [
        0.0020490000024437904,
        0.1341090053319931
      ],
      "type": "VEC2"
    },
    {
      "bufferView": 0,
      "byteOffset": 3375480,
      "componentType": 5125,
      "count": 103263,
      "type": "SCALAR"
    }
  ],
  "asset": {
    "extras": {
      "author": "cyberhirsch (https://sketchfab.com/cyberhirsch)",
      "license": "CC-BY-NC-SA-4.0 (http://creativecommons.org/licenses/by-nc-sa/4.0/)",
      "source": "https://sketchfab.com/3d-models/building-cd-73641c9bc127486eb2010346ac9c065b",
      "title": "Building CD"
    },
    "generator": "Sketchfab-16.31.0",
    "version": "2.0"
  },
  "bufferViews": [
    {
      "buffer": 0,
      "byteLength": 3788532,
      "name": "floatBufferViews",
      "target": 34963
    },
    {
      "buffer": 0,
      "byteLength": 1769560,
      "byteOffset": 3788532,
      "byteStride": 8,
      "name": "floatBufferViews",
      "target": 34962
    },
    {
      "buffer": 0,
      "byteLength": 5308680,
      "byteOffset": 5558092,
      "byteStride": 12,
      "name": "floatBufferViews",
      "target": 34962
    }
  ],
  "buffers": [
    {
      "byteLength": 10866772,
      "uri": "scene.bin"
    }
  ],
  "extensionsUsed": [
    "KHR_materials_unlit"
  ],
  "images": [
    {
      "uri": "textures/main_baseColor.jpeg"
    }
  ],
  "materials": [
    {
      "doubleSided": true,
      "extensions": {
        "KHR_materials_unlit": {}
      },
      "name": "main",
      "pbrMetallicRoughness": {
        "baseColorTexture": {
          "index": 0
        },
        "metallicFactor": 0.0
      }
    }
  ],
  "meshes": [
    {
      "name": "Object_0",
      "primitives": [
        {
          "attributes": {
            "NORMAL": 1,
            "POSITION": 0,
            "TEXCOORD_0": 2
          },
          "indices": 3,
          "material": 0,
          "mode": 4
        }
      ]
    },
    {
      "name": "Object_1",
      "primitives": [
        {
          "attributes": {
            "NORMAL": 5,
            "POSITION": 4,
            "TEXCOORD_0": 6
          },
          "indices": 7,
          "material": 0,
          "mode": 4
        }
      ]
    },
    {
      "name": "Object_2",
      "primitives": [
        {
          "attributes": {
            "NORMAL": 9,
            "POSITION": 8,
            "TEXCOORD_0": 10
          },
          "indices": 11,
          "material": 0,
          "mode": 4
        }
      ]
    },
    {
      "name": "Object_3",
      "primitives": [
        {
          "attributes": {
            "NORMAL": 13,
            "POSITION": 12,
            "TEXCOORD_0": 14
          },
          "indices": 15,
          "material": 0,
          "mode": 4
        }
      ]
    }
  ],
  "nodes": [
    {
      "children": [
        1
      ],
      "matrix": [
        1.0,
        0.0,
        0.0,
        0.0,
        0.0,
        2.220446049250313e-16,
        -1.0,
        0.0,
        0.0,
        1.0,
        2.220446049250313e-16,
        0.0,
        0.0,
        0.0,
        0.0,
        1.0
      ],
      "name": "Sketchfab_model"
    },
    {
      "children": [
        2,
        3,
        4,
        5
      ],
      "name": "Scaniverse.obj.cleaner.materialmerger.gles"
    },
    {
      "mesh": 0,
      "name": "Object_2"
    },
    {
      "mesh": 1,
      "name": "Object_3"
    },
    {
      "mesh": 2,
      "name": "Object_4"
    },
    {
      "mesh": 3,
      "name": "Object_5"
    }
  ],
  "samplers": [
    {
      "magFilter": 9729,
      "minFilter": 9987,
      "wrapS": 10497,
      "wrapT": 10497
    }
  ],
  "scene": 0,
  "scenes": [
    {
      "name": "Sketchfab_Scene",
      "nodes": [
        0
      ]
    }
  ],
  "textures": [
    {
      "sampler": 0,
      "source": 0
    }
  ]
}
